<svg width="156" height="118" viewBox="0 0 156 118" fill="none" xmlns="http://www.w3.org/2000/svg">
<path d="M9.48799 117.32C7.43999 117.32 5.64799 117.149 4.11199 116.808C2.57599 116.552 1.21066 116.168 0.0159912 115.656V105.928C1.38132 106.269 2.83199 106.568 4.36799 106.824C5.90399 107.08 7.52533 107.208 9.23199 107.208C11.3653 107.208 13.3707 106.781 15.248 105.928C17.2107 105.075 18.7893 103.581 19.984 101.448C21.1787 99.3147 21.776 96.328 21.776 92.488V1.60803H33.296V91.592C33.296 97.48 32.3147 102.301 30.352 106.056C28.3893 109.896 25.616 112.712 22.032 114.504C18.448 116.381 14.2667 117.32 9.48799 117.32Z" fill="#FEB747"/>
<path d="M93.864 92H80.424L31.528 16.096H31.016C31.1013 17.632 31.1867 19.3387 31.272 21.216C31.4427 23.0934 31.5707 25.1414 31.656 27.36C31.7413 29.4934 31.8267 31.712 31.912 34.016C31.9973 36.32 32.04 38.624 32.04 40.928V92H21.416V0.608032H34.728L83.496 76.256H84.008C83.9227 75.232 83.8373 73.824 83.752 72.032C83.6667 70.1547 83.5813 68.1067 83.496 65.888C83.4107 63.584 83.3253 61.2374 83.24 58.848C83.1547 56.4587 83.112 54.24 83.112 52.192V0.608032H93.864V92Z" fill="#FEB747"/>
<path d="M155.632 45.408C155.632 55.648 153.712 64.224 149.872 71.136C146.117 78.048 140.699 83.2534 133.616 86.752C126.533 90.2507 117.957 92 107.888 92H82.416V0.608032H110.576C119.792 0.608032 127.771 2.3147 134.512 5.72803C141.253 9.14137 146.459 14.176 150.128 20.832C153.797 27.4027 155.632 35.5947 155.632 45.408ZM143.472 45.792C143.472 37.6854 142.107 31.0294 139.376 25.824C136.731 20.6187 132.805 16.7787 127.6 14.304C122.48 11.744 116.251 10.464 108.912 10.464H93.936V82.144H106.352C118.725 82.144 127.984 79.1147 134.128 73.056C140.357 66.912 143.472 57.824 143.472 45.792Z" fill="#FEB747"/>
<path d="M135.18 62.81C135.18 66.65 134.25 69.92 132.39 72.62C130.53 75.26 127.86 77.3 124.38 78.74C120.96 80.18 116.91 80.9 112.23 80.9C109.83 80.9 107.52 80.78 105.3 80.54C103.14 80.3 101.16 79.97 99.36 79.55C97.56 79.07 95.97 78.5 94.59 77.84V70.1C96.75 71.06 99.42 71.93 102.6 72.71C105.84 73.49 109.17 73.88 112.59 73.88C115.77 73.88 118.44 73.46 120.6 72.62C122.76 71.78 124.38 70.58 125.46 69.02C126.54 67.46 127.08 65.63 127.08 63.53C127.08 61.43 126.63 59.66 125.73 58.22C124.83 56.78 123.27 55.46 121.05 54.26C118.89 53 115.86 51.68 111.96 50.3C109.2 49.28 106.77 48.2 104.67 47.06C102.63 45.86 100.92 44.51 99.54 43.01C98.16 41.51 97.11 39.8 96.39 37.88C95.73 35.96 95.4 33.74 95.4 31.22C95.4 27.8 96.27 24.89 98.01 22.49C99.75 20.03 102.15 18.14 105.21 16.82C108.33 15.5 111.9 14.84 115.92 14.84C119.46 14.84 122.7 15.17 125.64 15.83C128.58 16.49 131.25 17.36 133.65 18.44L131.13 25.37C128.91 24.41 126.48 23.6 123.84 22.94C121.26 22.28 118.56 21.95 115.74 21.95C113.04 21.95 110.79 22.34 108.99 23.12C107.19 23.9 105.84 25.01 104.94 26.45C104.04 27.83 103.59 29.45 103.59 31.31C103.59 33.47 104.04 35.27 104.94 36.71C105.84 38.15 107.31 39.44 109.35 40.58C111.39 41.72 114.15 42.95 117.63 44.27C121.41 45.65 124.59 47.15 127.17 48.77C129.81 50.33 131.79 52.22 133.11 54.44C134.49 56.66 135.18 59.45 135.18 62.81Z" fill="#FEB747"/>
</svg>
