<?xml version="1.0" standalone="no"?>
<!DOCTYPE svg PUBLIC "-//W3C//DTD SVG 20010904//EN"
 "http://www.w3.org/TR/2001/REC-SVG-20010904/DTD/svg10.dtd">
<svg version="1.0" xmlns="http://www.w3.org/2000/svg"
 width="180.000000pt" height="224.000000pt" viewBox="0 0 180.000000 224.000000"
 preserveAspectRatio="xMidYMid meet">

<g transform="translate(0.000000,224.000000) scale(0.100000,-0.100000)"
fill="#000000" stroke="none">
<path d="M356 1888 c-4 -90 -6 -287 -6 -438 1 -228 -2 -281 -14 -312 -25 -58
-21 -145 9 -205 47 -94 143 -142 474 -238 211 -61 284 -91 321 -130 l24 -25
-51 -49 c-133 -128 -401 -144 -797 -47 -74 18 -138 31 -141 28 -3 -3 -5 -56
-5 -118 0 -99 2 -113 17 -118 40 -11 276 -46 388 -57 163 -16 386 -6 495 21
47 11 132 43 189 71 129 63 230 157 279 260 63 132 65 166 70 877 l3 642 -624
0 -624 0 -7 -162z m864 -269 l0 -220 -27 19 c-16 10 -156 108 -313 217 -157
109 -287 199 -289 201 -2 2 138 4 312 4 l317 0 0 -221z m-440 -112 c118 -83
216 -150 217 -151 1 -1 -74 -1 -165 -1 -105 0 -184 -5 -212 -13 -25 -7 -53
-15 -62 -18 -17 -5 -18 8 -18 171 0 138 3 175 13 169 6 -4 109 -75 227 -157z
m286 -301 c39 -8 90 -19 113 -26 l41 -11 0 -204 c0 -113 -2 -205 -5 -205 -4 0
-18 6 -34 14 -15 8 -121 40 -236 71 -362 98 -415 127 -415 227 0 71 54 120
160 145 67 16 273 10 376 -11z"/>
</g>
</svg>
